# xmcd
#
# Track frame offsets:
#	150
#	15334
#	29955
#	48615
#	62130
#	78327
#	91940
#	106745
#	122515
#	137375
#	155080
#	169492
#	186212
#	202142
#	216937
#
# Disc length: 3106 seconds
#
# Revision: 0
# Processed by: cddbd v1.5.2PL0 Copyright (c) Steve Scherf et al.
# Submitted via: dBpowerAMP V4.0
#
DISCID=d40c200f
DTITLE=Galy Galeano cd 2 - 30 Exitos de Galy Galeano
DYEAR=1900
DGENRE=Latin
TTITLE0=Me bebi tu recuerdo
TTITLE1=Voy a jugarmela contigo
TTITLE2=pequeno motel
TTITLE3=Terminemos de una vez
TTITLE4=Esa mujer es un veneno
TTITLE5=Yo no quedan lagrimas
TTITLE6=Ya no eres la misma
TTITLE7=Te reo a que me olvides
TTITLE8=Vente a vivir conmigo
TTITLE9=A mi me mato el olvido
TTITLE10=Corazon olvida
TTITLE11=Hay amores
TTITLE12=Tan solo una croz
TTITLE13=Nadie se muere dos veces
TTITLE14=Ni tuya ni mia
EXTD=
EXTT0=
EXTT1=
EXTT2=
EXTT3=
EXTT4=
EXTT5=
EXTT6=
EXTT7=
EXTT8=
EXTT9=
EXTT10=
EXTT11=
EXTT12=
EXTT13=
EXTT14=
PLAYORDER=
